<?xml version="1.0"?>
<svg id="LemonCode" xmlns="http://www.w3.org/2000/svg" viewBox="0 0 134.96 101.35" width="134.96" height="101.35"><defs><style>.cls-1{fill:#a2bd38;}.cls-2{fill:#91aa29;}.cls-3{fill:#81a000;}.cls-4{fill:#84961d;}.cls-5{fill:#edd83a;}.cls-6{fill:#fff145;}.cls-7{fill:#f4e23d;}.cls-8{fill:#fff7ca;}</style></defs><title>lemoncode-logo</title><g id="LemonCode-logo"><g id="hojas-superior"><path class="cls-1" d="M93.19,19.21c-12.36,8.54-17,17.3-18.81,22.95l.37,1.9,5.73-3.17C89.16,36.75,99.06,21.83,93.19,19.21Z"></path><path class="cls-2" d="M93.19,19.21c-1.38-.61-3.63-.55-7,.49C68.64,25.19,74.13,40.89,74.13,40.89l.25,1.27C76.14,36.51,80.83,27.75,93.19,19.21Z"></path><polygon class="cls-3" points="83.25 27.66 90.71 27.66 81.29 29.89 83.25 27.66"></polygon><polygon class="cls-3" points="78.53 33.6 86 32.39 77.26 35.66 78.53 33.6"></polygon><polygon class="cls-4" points="81.29 29.89 83.25 21.98 83.25 27.66 81.29 29.89"></polygon><polygon class="cls-4" points="77.26 35.66 77.26 28.77 78.53 33.6 77.26 35.66"></polygon><path class="cls-2" d="M65.1,16.2A71.78,71.78,0,0,1,59,0c-1.34-.31-1.71,1.24-1.71,1.24C55,18,57.51,21.22,63.12,31.07a23,23,0,0,1,3.17,10.71C67.52,33.13,68.22,22.08,65.1,16.2Z"></path><path class="cls-1" d="M62.12,2.78C60.72.93,59.7.21,59,0A71.78,71.78,0,0,0,65.1,16.2c3.12,5.88,2.42,16.93,1.19,25.58a16.84,16.84,0,0,1-1.06,6.83V51C68.22,46.4,68,38.42,68,38.42,82.19,18.61,66.11,8,62.12,2.78Z"></path><polygon class="cls-2" points="64.18 14.39 65.1 8.52 65.64 17.36 64.18 14.39"></polygon><polygon class="cls-2" points="67.05 23.39 68.7 14.12 67.33 28.21 67.05 23.39"></polygon><polygon class="cls-4" points="64.18 14.39 58.98 9.8 65.64 17.36 64.18 14.39"></polygon><polygon class="cls-4" points="67.1 24.18 61.89 17.36 67.23 26.29 67.1 24.18"></polygon></g><g id="hoja-izq-inferior"><path class="cls-2" d="M18.87,99v.22s15.88.56,26.57-17l-5.11-3.89C31.7,85.85,23.33,94.37,18.87,99Z"></path><path class="cls-1" d="M40.33,78.36l-4.84-3.69S19.21,76.9,18.87,99C23.33,94.37,31.7,85.85,40.33,78.36Z"></path><polygon class="cls-3" points="26.24 91.53 22.35 89.81 26.96 90.81 26.24 91.53"></polygon><polygon class="cls-3" points="30.08 87.7 23.46 86.58 31.15 86.75 30.08 87.7"></polygon><polygon class="cls-3" points="34.12 83.79 26.65 83.4 35.93 82.56 34.12 83.79"></polygon><polygon class="cls-4" points="26.24 91.53 26.66 95.73 26.96 90.81 26.24 91.53"></polygon><polygon class="cls-4" points="30.08 87.7 30.21 93.35 31.15 86.75 30.08 87.7"></polygon><polygon class="cls-4" points="34.12 83.79 33.9 90.67 35.93 82.56 34.12 83.79"></polygon></g><g id="hoja-izq-superior"><path class="cls-2" d="M.19,70.88,0,71.06s13.25,14.18,37.64,8.22L36.58,71.5C22.66,70.55,8.07,70.69.19,70.88Z"></path><path class="cls-1" d="M36.58,71.5l-1-7.37S19.58,52,.19,70.88C8.07,70.69,22.66,70.55,36.58,71.5Z"></path><polygon class="cls-3" points="13.03 70.74 11.16 65.9 14.28 70.75 13.03 70.74"></polygon><polygon class="cls-3" points="19.66 70.74 14.91 64.07 21.41 70.84 19.66 70.74"></polygon><polygon class="cls-3" points="26.53 70.84 20.41 64.07 29.16 71.34 26.53 70.84"></polygon><polygon class="cls-4" points="13.03 70.74 9.78 74.73 14.28 70.75 13.03 70.74"></polygon><polygon class="cls-4" points="19.66 70.74 14.91 75.74 21.41 70.84 19.66 70.74"></polygon><polygon class="cls-4" points="26.53 70.84 20.41 76.61 29.16 71.34 26.53 70.84"></polygon></g><g id="limon-derecho"><path class="cls-5" d="M77.72,95c7.86,3.71,16.35,6.58,25,6.36s17.64-4,22.46-11.19c1.38-2.07,2.56-4.53,4.83-5.56,1.57-.72,3.64-.77,4.53-2.24,1.06-1.73-.39-3.83-1.37-5.61-1.58-2.88-1.94-6.24-2.89-9.37-2.76-9.13-10.64-16.2-19.67-19.26s-19-2.4-28.11.47c0,0-10.22,1.15-16.92,17.07S77.72,95,77.72,95Z"></path><path class="cls-6" d="M109.43,81.18a1.2,1.2,0,0,0-.91,2.22A1.2,1.2,0,0,0,109.43,81.18Z"></path><path class="cls-6" d="M111.56,84.59a1.2,1.2,0,0,0-.9,2.23A1.2,1.2,0,0,0,111.56,84.59Z"></path><path class="cls-6" d="M107.62,84.71a1.2,1.2,0,0,0-.9,2.23A1.2,1.2,0,0,0,107.62,84.71Z"></path></g><g id="limon-izquierdo"><circle class="cls-6" cx="58.91" cy="67.38" r="33.75" transform="translate(-20.06 109.5) rotate(-76.91)"></circle><path class="cls-7" d="M86.08,67.28H63.6a1.07,1.07,0,0,1-.76-1.83l15.9-15.9a1.09,1.09,0,0,1,1.58.06,27.78,27.78,0,0,1,6.84,16.51A1.08,1.08,0,0,1,86.08,67.28ZM77.62,46.92a1.09,1.09,0,0,1,.07,1.58L61.79,64.4h0A1.08,1.08,0,0,1,60,63.64V41.15a1.08,1.08,0,0,1,1.16-1.07A27.73,27.73,0,0,1,77.62,46.92Zm-36.83,0A27.78,27.78,0,0,1,57.3,40.08a1.08,1.08,0,0,1,1.16,1.07V63.64a1.07,1.07,0,0,1-1.83.76h0L40.73,48.5A1.09,1.09,0,0,1,40.79,46.92ZM38.1,49.61a1.09,1.09,0,0,1,1.58-.06l4.65,4.65L55.58,65.45a1.07,1.07,0,0,1-.76,1.83H32.33a1.08,1.08,0,0,1-1.07-1.16A27.78,27.78,0,0,1,38.1,49.61ZM32.33,68.77H54.82a1.08,1.08,0,0,1,.76,1.83L44.33,81.85l-4.65,4.66a1.09,1.09,0,0,1-1.58-.07,27.73,27.73,0,0,1-6.84-16.51A1.08,1.08,0,0,1,32.33,68.77Zm8.46,20.37a1.09,1.09,0,0,1-.06-1.58l15.9-15.9h0a1.07,1.07,0,0,1,1.83.76V94.9A1.08,1.08,0,0,1,57.3,96,27.84,27.84,0,0,1,40.79,89.14Zm36.83,0A27.79,27.79,0,0,1,61.11,96,1.09,1.09,0,0,1,60,94.9V72.42a1.08,1.08,0,0,1,1.84-.76h0l15.9,15.9A1.09,1.09,0,0,1,77.62,89.14Zm1.12-2.63L62.84,70.6a1.07,1.07,0,0,1,.76-1.83H86.08a1.09,1.09,0,0,1,1.08,1.16,27.73,27.73,0,0,1-6.84,16.51A1.09,1.09,0,0,1,78.74,86.51Z"></path><circle class="cls-8" cx="58.91" cy="67.38" r="31.06"></circle><path class="cls-6" d="M85.78,66.64H63.3a1.08,1.08,0,0,1-.76-1.84l15.9-15.9A1.08,1.08,0,0,1,80,49a27.73,27.73,0,0,1,6.84,16.51A1.09,1.09,0,0,1,85.78,66.64ZM77.32,46.27a1.09,1.09,0,0,1,.07,1.58l-15.9,15.9h0A1.08,1.08,0,0,1,59.65,63V40.51a1.09,1.09,0,0,1,1.16-1.08A27.73,27.73,0,0,1,77.32,46.27Zm-36.83,0A27.78,27.78,0,0,1,57,39.43a1.08,1.08,0,0,1,1.16,1.08V63a1.07,1.07,0,0,1-1.83.76h0l-15.9-15.9A1.09,1.09,0,0,1,40.49,46.27ZM37.8,49a1.08,1.08,0,0,1,1.58-.07L44,53.56,55.28,64.8a1.08,1.08,0,0,1-.76,1.84H32A1.08,1.08,0,0,1,31,65.48,27.73,27.73,0,0,1,37.8,49ZM32,68.13H54.52A1.07,1.07,0,0,1,55.28,70L44,81.2l-4.65,4.66a1.09,1.09,0,0,1-1.58-.06A27.78,27.78,0,0,1,31,69.29,1.08,1.08,0,0,1,32,68.13Zm8.46,20.36a1.09,1.09,0,0,1-.06-1.58L56.33,71h0a1.07,1.07,0,0,1,1.83.76V94.26A1.08,1.08,0,0,1,57,95.33,27.78,27.78,0,0,1,40.49,88.49Zm36.83,0a27.73,27.73,0,0,1-16.51,6.84,1.08,1.08,0,0,1-1.16-1.07V71.77A1.08,1.08,0,0,1,61.49,71h0l15.9,15.9A1.09,1.09,0,0,1,77.32,88.49Zm1.12-2.63L62.54,70a1.07,1.07,0,0,1,.76-1.83H85.78a1.08,1.08,0,0,1,1.08,1.16A27.78,27.78,0,0,1,80,85.8,1.09,1.09,0,0,1,78.44,85.86Z"></path></g></g></svg>