<?xml version="1.0"?>
<svg width="200" height="51" viewBox="0 0 200 51" fill="none" xmlns="http://www.w3.org/2000/svg">
<path d="M25.41 0C5.08 0 0 5.08 0 25.41C0 45.74 5.08 50.82 25.41 50.82C45.74 50.82 50.82 45.74 50.82 25.41C50.82 5.08 45.74 0 25.41 0ZM21.24 39.31C19.3169 39.3041 17.4386 38.7284 15.8425 37.6556C14.2464 36.5829 13.0039 35.0612 12.2721 33.2828C11.5402 31.5043 11.3518 29.5489 11.7306 27.6634C12.1094 25.778 13.0385 24.0471 14.4004 22.6893C15.7624 21.3316 17.4962 20.4078 19.3828 20.0348C21.2694 19.6618 23.2242 19.8562 25.0004 20.5936C26.7766 21.3309 28.2944 22.578 29.3623 24.1774C30.4301 25.7769 31 27.6569 31 29.58C30.9947 32.1641 29.9638 34.6405 28.1337 36.4649C26.3036 38.2893 23.8241 39.3127 21.24 39.31ZM38.91 38.91H34.14V16.67H11.91V11.91H38.91V38.91Z" fill="white"></path>
<path d="M21.24 34.54C23.9793 34.54 26.2 32.3193 26.2 29.58C26.2 26.8407 23.9793 24.62 21.24 24.62C18.5007 24.62 16.28 26.8407 16.28 29.58C16.28 32.3193 18.5007 34.54 21.24 34.54Z" fill="white"></path>
<path d="M70.9 28.81C73.27 22.22 74.22 19.55 75.09 16.81C76.35 20.73 77.65 24.39 79.17 28.81H70.9ZM72.54 12L62.33 38.91H67.55L69.72 32.62H80.35L82.48 38.91H87.74L77.91 12H72.54Z" fill="white"></path>
<path d="M98.43 35.56C95.61 35.56 93.97 33.23 93.97 29.19C93.97 25.57 95.88 23.29 98.58 23.29C101.13 23.29 102.7 25.61 102.7 29.42C102.7 33.42 101.06 35.56 98.43 35.56V35.56ZM94.09 22.49V12H89.63V38.9H93.9V36.43C94.5045 37.3593 95.3431 38.1129 96.3315 38.6149C97.3199 39.117 98.423 39.3499 99.53 39.29C104.22 39.29 107.34 35.63 107.34 29.42C107.34 23.21 104.49 19.55 100.03 19.55C98.8782 19.5366 97.7395 19.796 96.7071 20.307C95.6747 20.818 94.7779 21.566 94.09 22.49V22.49Z" fill="white"></path>
<path d="M116.71 22.8C117.603 22.7987 118.479 23.0482 119.238 23.5203C119.996 23.9923 120.607 24.6679 121 25.47L124.32 23.22C123.515 21.9857 122.401 20.9837 121.089 20.3135C119.777 19.6433 118.312 19.3284 116.84 19.4C112.15 19.4 109.48 22.15 109.48 25.13C109.48 28.11 111.35 29.74 114.29 30.66L116.29 31.31C119.15 32.22 119.8 32.76 119.8 34.02C119.8 35.28 118.73 36.02 116.8 36.02C115.783 36.0195 114.787 35.7283 113.929 35.1809C113.072 34.6335 112.389 33.8526 111.96 32.93L108.49 35.22C109.362 36.5695 110.568 37.6714 111.99 38.4194C113.413 39.1673 115.004 39.536 116.61 39.49C121.34 39.49 124.28 36.93 124.28 33.42C124.28 30.42 122.37 28.81 119.02 27.74L117.02 27.13C114.58 26.37 114.02 25.83 114.02 24.69C114.02 23.55 114.94 22.82 116.84 22.82" fill="white"></path>
<path d="M133.3 23.52H137V20H133.3V13.8H128.86L128.78 20H125.78V23.57H128.78V33.97C128.644 35.3887 129.023 36.8089 129.85 37.97C130.62 38.89 131.85 39.35 133.75 39.35C134.87 39.3477 135.986 39.2032 137.07 38.92V35.33C136.484 35.5497 135.865 35.6681 135.24 35.68C133.86 35.68 133.3 34.99 133.3 33.04V23.52Z" fill="white"></path>
<path d="M143.77 20H139.5V39H144V30.12C143.89 28.5994 144.239 27.0808 145 25.76C145.443 25.1221 146.045 24.6116 146.747 24.2799C147.449 23.9482 148.226 23.8069 149 23.87C149.555 23.8789 150.107 23.963 150.64 24.12V20C150.113 19.8141 149.559 19.7129 149 19.7C147.905 19.638 146.817 19.9084 145.878 20.4759C144.939 21.0434 144.194 21.8814 143.74 22.88L143.77 20Z" fill="white"></path>
<path d="M163.54 30.93C163.551 31.9895 163.26 33.0303 162.7 33.93C162.258 34.5754 161.659 35.0976 160.959 35.4475C160.259 35.7974 159.482 35.9635 158.7 35.93C156.7 35.93 155.8 34.93 155.8 33.53C155.779 33.0153 155.928 32.5079 156.224 32.0866C156.521 31.6653 156.948 31.3537 157.44 31.2C159.386 30.4831 161.437 30.0945 163.51 30.05L163.54 30.93ZM167.79 26.93C167.79 23.93 167.39 22.39 166.21 21.28C165.03 20.17 163.12 19.45 160.52 19.45C155.67 19.45 152.61 21.74 152.31 25.87L156.59 26.25C156.82 24.15 157.85 22.96 160.18 22.96C161.129 22.8765 162.073 23.1672 162.81 23.77C163.083 24.0808 163.289 24.4446 163.414 24.8387C163.54 25.2328 163.583 25.6486 163.54 26.06V27.06C160.54 27.25 156.86 27.78 154.99 28.62C153.949 28.9924 153.052 29.684 152.427 30.5962C151.802 31.5084 151.481 32.5947 151.51 33.7C151.51 37.1 153.96 39.27 157.43 39.27C158.606 39.3286 159.779 39.1145 160.858 38.6444C161.937 38.1743 162.892 37.4609 163.65 36.56C164.06 38.46 165.4 39.17 167.79 39.17C168.469 39.1767 169.145 39.072 169.79 38.86V36C168.06 36.31 167.79 35.3 167.79 33.82V26.93Z" fill="white"></path>
<path d="M175.35 29.31C175.35 25.08 177.35 23.14 179.92 23.14C181.72 23.14 183.09 23.98 183.62 26.49L187.62 25.12C187.24 23.415 186.263 21.9018 184.866 20.853C183.469 19.8043 181.743 19.289 180 19.4C174.31 19.4 170.73 23.18 170.73 29.4C170.73 35.62 174.24 39.46 179.73 39.46C184.04 39.46 186.56 37.18 187.66 34.01L183.66 32.64C183.554 33.5301 183.112 34.3461 182.424 34.9206C181.736 35.4952 180.855 35.7848 179.96 35.73C177.1 35.72 175.35 33.51 175.35 29.31V29.31Z" fill="white"></path>
<path d="M196.23 23.52H199.9V20H196.23V13.8H191.79L191.71 20H188.71V23.57H191.71V33.97C191.574 35.3887 191.953 36.8089 192.78 37.97C193.55 38.89 194.78 39.35 196.68 39.35C197.8 39.3477 198.916 39.2032 200 38.92V35.33C199.414 35.5497 198.795 35.6681 198.17 35.68C196.79 35.68 196.23 34.99 196.23 33.04V23.52Z" fill="white"></path>
</svg>
